<svg width="111" height="18" viewBox="0 0 111 18" fill="none" xmlns="http://www.w3.org/2000/svg">
<path d="M9.11294 0L11.2642 6.62094H18.2259L12.5938 10.7129L14.745 17.3338L9.11294 13.2419L3.48083 17.3338L5.6321 10.7129L0 6.62094H6.96166L9.11294 0Z" fill="url(#paint0_linear_198_1371)"/>
<path d="M32.2768 0L34.428 6.62094H41.3897L35.7576 10.7129L37.9089 17.3338L32.2768 13.2419L26.6446 17.3338L28.7959 10.7129L23.1638 6.62094H30.1255L32.2768 0Z" fill="url(#paint1_linear_198_1371)"/>
<path d="M55.4406 0L57.5918 6.62094H64.5535L58.9214 10.7129L61.0727 17.3338L55.4406 13.2419L49.8085 17.3338L51.9597 10.7129L46.3276 6.62094H53.2893L55.4406 0Z" fill="url(#paint2_linear_198_1371)"/>
<path d="M78.6044 0L80.7557 6.62094H87.7173L82.0852 10.7129L84.2365 17.3338L78.6044 13.2419L72.9723 17.3338L75.1236 10.7129L69.4914 6.62094H76.4531L78.6044 0Z" fill="url(#paint3_linear_198_1371)"/>
<path d="M101.768 0L103.919 6.62094H110.881L105.249 10.7129L107.4 17.3338L101.768 13.2419L96.1361 17.3338L98.2874 10.7129L92.6553 6.62094H99.6169L101.768 0Z" fill="url(#paint4_linear_198_1371)"/>
<defs>
<linearGradient id="paint0_linear_198_1371" x1="0" y1="8.66692" x2="110.881" y2="8.66692" gradientUnits="userSpaceOnUse">
<stop stop-color="#342210"/>
<stop offset="0.144231" stop-color="#784A16"/>
<stop offset="0.341639" stop-color="#FFD8B4"/>
<stop offset="0.564251" stop-color="#A57847"/>
<stop offset="0.753637" stop-color="#A27E4C"/>
<stop offset="1" stop-color="#F2DDBF"/>
</linearGradient>
<linearGradient id="paint1_linear_198_1371" x1="0" y1="8.66692" x2="110.881" y2="8.66692" gradientUnits="userSpaceOnUse">
<stop stop-color="#342210"/>
<stop offset="0.144231" stop-color="#784A16"/>
<stop offset="0.341639" stop-color="#FFD8B4"/>
<stop offset="0.564251" stop-color="#A57847"/>
<stop offset="0.753637" stop-color="#A27E4C"/>
<stop offset="1" stop-color="#F2DDBF"/>
</linearGradient>
<linearGradient id="paint2_linear_198_1371" x1="0" y1="8.66692" x2="110.881" y2="8.66692" gradientUnits="userSpaceOnUse">
<stop stop-color="#342210"/>
<stop offset="0.144231" stop-color="#784A16"/>
<stop offset="0.341639" stop-color="#FFD8B4"/>
<stop offset="0.564251" stop-color="#A57847"/>
<stop offset="0.753637" stop-color="#A27E4C"/>
<stop offset="1" stop-color="#F2DDBF"/>
</linearGradient>
<linearGradient id="paint3_linear_198_1371" x1="0" y1="8.66692" x2="110.881" y2="8.66692" gradientUnits="userSpaceOnUse">
<stop stop-color="#342210"/>
<stop offset="0.144231" stop-color="#784A16"/>
<stop offset="0.341639" stop-color="#FFD8B4"/>
<stop offset="0.564251" stop-color="#A57847"/>
<stop offset="0.753637" stop-color="#A27E4C"/>
<stop offset="1" stop-color="#F2DDBF"/>
</linearGradient>
<linearGradient id="paint4_linear_198_1371" x1="0" y1="8.66692" x2="110.881" y2="8.66692" gradientUnits="userSpaceOnUse">
<stop stop-color="#342210"/>
<stop offset="0.144231" stop-color="#784A16"/>
<stop offset="0.341639" stop-color="#FFD8B4"/>
<stop offset="0.564251" stop-color="#A57847"/>
<stop offset="0.753637" stop-color="#A27E4C"/>
<stop offset="1" stop-color="#F2DDBF"/>
</linearGradient>
</defs>
</svg>
